<mxfile host="Electron" agent="Mozilla/5.0 (Windows NT 10.0; Win64; x64) AppleWebKit/537.36 (KHTML, like Gecko) draw.io/24.7.8 Chrome/128.0.6613.36 Electron/32.0.1 Safari/537.36" version="24.7.8">
  <diagram name="Page-1" id="wZHylJGVvRN78PE_ajUZ">
    <mxGraphModel dx="573" dy="536" grid="1" gridSize="10" guides="1" tooltips="1" connect="1" arrows="1" fold="1" page="1" pageScale="1" pageWidth="850" pageHeight="1100" math="0" shadow="0">
      <root>
        <mxCell id="0" />
        <mxCell id="1" parent="0" />
        <mxCell id="2amReH7Rf4U3_M4I3xsN-1" value="" style="shape=process;whiteSpace=wrap;html=1;backgroundOutline=1;rounded=0;glass=0;" vertex="1" parent="1">
          <mxGeometry x="240" y="150" width="120" height="60" as="geometry" />
        </mxCell>
        <mxCell id="2amReH7Rf4U3_M4I3xsN-2" value="" style="shape=process;whiteSpace=wrap;html=1;backgroundOutline=1;" vertex="1" parent="1">
          <mxGeometry x="240" y="220" width="120" height="60" as="geometry" />
        </mxCell>
        <mxCell id="2amReH7Rf4U3_M4I3xsN-3" value="There are a few Robot &lt;i&gt;&#39;Base Classes*&#39;&lt;/i&gt;, when we make our pick, we &lt;i&gt;&#39;Subclass&#39;&lt;/i&gt; one of these &lt;i&gt;&#39;Base Classes&#39;&lt;/i&gt; to create our &#39;Robot Class&#39;&lt;div&gt;&lt;br&gt;&lt;/div&gt;&lt;div style=&quot;font-size: 8px;&quot;&gt;&lt;font style=&quot;font-size: 8px;&quot;&gt;*one &#39;Base Class&#39;&amp;nbsp;&lt;span style=&quot;background-color: initial;&quot;&gt;example is&lt;/span&gt;&lt;span style=&quot;background-color: initial;&quot;&gt;:&lt;/span&gt;&lt;/font&gt;&lt;/div&gt;&lt;div style=&quot;font-size: 8px;&quot;&gt;&lt;font style=&quot;font-size: 8px;&quot;&gt;&amp;nbsp;TimedRobot (recommended)&lt;/font&gt;&lt;/div&gt;" style="text;html=1;align=left;verticalAlign=top;whiteSpace=wrap;rounded=0;" vertex="1" parent="1">
          <mxGeometry x="20" y="20" width="229" height="100" as="geometry" />
        </mxCell>
      </root>
    </mxGraphModel>
  </diagram>
</mxfile>
